#!OML:ASF H:\Terrain\Patient Classification 1\Terrain2\Thursday\justin.ASF
:FULLY-SPECIFIED
:DEGREES
3923
root 20.6869 17.7556 -3.17466 -181.627 -173.581 179.931
lowerback 9.47158 -0.778351 -2.95675
upperback 4.03555 -1.25646 2.27022
thorax -0.998776 -0.680825 4.14678
lowerneck -12.0495 -1.69799 -8.92328
upperneck 38.8229 -1.99173 4.76408
head 15.9598 -1.55589 3.33146
rclavicle 8.64713e-015 4.37326e-015
rhumerus -33.0324 -9.10529 -79.5658
rradius 39.271
rwrist -11.4282
rhand -20.8248 10.1213
rfingers 7.12502
rthumb 5.54353 -19.7862
lclavicle 8.64713e-015 4.37326e-015
lhumerus -31.6657 4.22725 81.8711
lradius 39.8212
lwrist 9.14069
lhand -18.6018 23.6486
lfingers 7.12502
lthumb 7.6895 -306.511
rfemur -17.5659 -6.24206 20.6789
rtibia 53.009
rfoot -20.8102 -4.25457
rtoes -5.53699
lfemur -13.4574 361.869 -19.0747
ltibia 25.5703
lfoot -8.60674 -12.4168
ltoes -2.20931
3924
root 20.6784 17.7428 -3.12901 -181.499 -173.436 179.796
lowerback 9.3147 -0.734748 -2.83735
upperback 4.04558 -1.18537 2.27041
thorax -0.911885 -0.646006 4.0684
lowerneck -11.9693 -1.73433 -8.93968
upperneck 38.7958 -2.08604 4.85473
head 15.9365 -1.58594 3.35746
rclavicle 4.41302e-014 -7.95139e-016
rhumerus -32.9362 -9.25347 -79.4832
rradius 39.2765
rwrist -11.4742
rhand -19.9062 10.6567
rfingers 7.12502
rthumb 6.43037 -19.2257
lclavicle 4.41302e-014 -7.95139e-016
lhumerus -31.4516 3.87653 81.8477
lradius 40.2858
lwrist 9.14199
lhand -16.1426 26.6616
lfingers 7.12502
lthumb 10.0625 -303.599
rfemur -17.611 -6.30306 21.076
rtibia 51.44
rfoot -21.2956 -3.98464
rtoes -5.18699
lfemur -13.7038 361.939 -18.892
ltibia 26.1928
lfoot -9.03237 -12.3633
ltoes -1.72562
3925
root 20.6693 17.7325 -3.08703 -181.403 -173.389 179.546
lowerback 9.28189 -0.753748 -2.62169
upperback 3.9527 -1.19021 2.32538
thorax -0.993818 -0.643444 4.00436
lowerneck -11.5579 -1.6967 -8.96297
upperneck 38.6356 -2.09428 4.93486
head 15.7546 -1.58176 3.38716
rclavicle -3.97569e-016 -1.51076e-014
rhumerus -33.0945 -9.20756 -79.3875
rradius 39.3291
rwrist -11.1468
rhand -19.296 10.6061
rfingers 7.12502
rthumb 7.01947 -19.2575
lclavicle -3.97569e-016 -1.51076e-014
lhumerus -31.5519 3.4697 81.8341
lradius 40.8809
lwrist 9.33954
lhand -18.8561 24.6524
lfingers 7.12502
lthumb 7.44405 -305.499
rfemur -17.5918 -6.49622 21.6083
rtibia 49.8669
rfoot -21.4958 -3.83357
rtoes -4.7093
lfemur -13.928 362.05 -18.5881
ltibia 26.8103
lfoot -9.4622 -12.4278
ltoes -0.559859
3926
root 20.6591 17.7252 -3.046 -181.405 -173.403 179.447
lowerback 9.37735 -0.816911 -2.61856
upperback 3.87472 -1.27374 2.38671
thorax -1.11823 -0.681999 4.07819
lowerneck -11.4476 -1.64334 -8.98173
upperneck 38.6716 -2.02262 4.93114
head 15.739 -1.55796 3.40092
rclavicle -9.83984e-015 7.95139e-016
rhumerus -33.2745 -9.04629 -79.3696
rradius 39.3624
rwrist -10.7358
rhand -19.2818 10.4896
rfingers 7.12502
rthumb 7.03317 -19.3736
lclavicle -9.83984e-015 7.95139e-016
lhumerus -31.7682 3.30121 81.8371
lradius 41.4859
lwrist 9.47874
lhand -16.128 27.6149
lfingers 7.12502
lthumb 10.0767 -302.646
rfemur -17.4422 -6.79938 21.9804
rtibia 48.3314
rfoot -21.545 -4.0326
rtoes -5.16801
lfemur -14.0234 362.113 -18.4507
ltibia 27.3785
lfoot -10.0213 -12.4128
ltoes -0.128711
3927
root 20.6495 17.7112 -2.99705 -181.297 -173.29 179.477
lowerback 9.23861 -0.81574 -2.73858
upperback 3.85112 -1.27967 2.41204
thorax -1.06218 -0.687034 4.17025
lowerneck -11.6747 -1.65874 -9.02099
upperneck 38.8585 -2.01121 4.91366
head 15.8908 -1.56561 3.41045
rclavicle 1.10325e-014 -2.14687e-014
rhumerus -33.3216 -8.95692 -79.387
rradius 39.3423
rwrist -10.617
rhand -19.2154 10.8037
rfingers 7.12502
rthumb 7.09721 -19.0573
lclavicle 1.10325e-014 -2.14687e-014
lhumerus -31.6793 3.14036 81.8661
lradius 41.7707
lwrist 9.56998
lhand -18.2138 25.1974
lfingers 7.12502
lthumb 8.06398 -304.976
rfemur -17.3763 -7.03126 22.1979
rtibia 46.8833
rfoot -21.6861 -4.30095
rtoes -4.83368
lfemur -14.212 362.151 -18.4572
ltibia 27.9164
lfoot -10.471 -12.2985
ltoes 0.163155
3928
root 20.6424 17.6976 -2.9472 -181.066 -173.15 179.456
lowerback 8.90636 -0.825357 -2.71299
upperback 3.83643 -1.28472 2.40311
thorax -0.895226 -0.69234 4.13875
lowerneck -11.9168 -1.659 -9.04509
upperneck 39.061 -1.99479 4.93567
head 16.0547 -1.56432 3.43641
rclavicle 5.2181e-014 -3.85642e-014
rhumerus -33.1882 -8.8384 -79.4714
rradius 39.2207
rwrist -10.5906
rhand -18.8876 10.9861
rfingers 7.12502
rthumb 7.41368 -18.864
lclavicle 5.2181e-014 -3.85642e-014
lhumerus -31.4494 2.96975 81.8447
lradius 41.9053
lwrist 9.79092
lhand -13.5525 30.7121
lfingers 7.12502
lthumb 12.5606 -299.685
rfemur -17.4 -7.2859 22.4512
rtibia 45.5034
rfoot -21.533 -4.50374
rtoes -3.61569
lfemur -14.517 362.121 -18.4213
ltibia 28.3894
lfoot -10.6966 -12.2103
ltoes 1.16043
